<svg width="45" height="45" viewBox="0 0 45 45" fill="none" xmlns="http://www.w3.org/2000/svg">
<rect width="45" height="45" fill="white"/>
<path d="M35 0C40.5228 0 45 4.47715 45 10V35C45 40.3502 40.7983 44.7195 35.5146 44.9873L35 45H10L9.48535 44.9873C4.37212 44.7281 0.271903 40.6279 0.0126953 35.5146L0 35V10C0 4.47715 4.47715 4.02661e-08 10 0H35ZM10 3C6.13401 3 3 6.13401 3 10V35C3 38.866 6.13401 42 10 42H35C38.866 42 42 38.866 42 35V10C42 6.13401 38.866 3 35 3H10ZM22.5273 15.7578C24.8705 13.4147 28.6695 13.4147 31.0127 15.7578C33.3557 18.1009 33.3557 21.8991 31.0127 24.2422L22.5273 32.7275L14.042 24.2422C11.6995 21.8992 11.6995 18.1008 14.042 15.7578C16.3851 13.4147 20.1842 13.4147 22.5273 15.7578ZM30.3057 16.4648C28.353 14.5122 25.187 14.5122 23.2344 16.4648L22.5273 17.1719L21.8203 16.4648C19.8677 14.5122 16.7026 14.5123 14.75 16.4648C12.7974 18.4175 12.7974 21.5825 14.75 23.5352L22.5273 31.3135L30.3057 23.5352C32.2582 21.5826 32.2582 18.4174 30.3057 16.4648Z" fill="#CFCFCF"/>
</svg>
